<svg width="173" height="26" viewBox="0 0 173 26" xmlns="http://www.w3.org/2000/svg"><title>Logo Dark + ASSETHOUSE 2</title><g fill="#FFF" fill-rule="evenodd"><path d="M19 0l21 7.156V26H19V0z" opacity=".854"/><path d="M22 2L0 8.68V26h22V2z" opacity=".589"/><path d="M22 2l-2.812.854L19.158 26H22V2zM58.424 21H57.16l4.896-11.328h1.12L68.04 21h-1.28l-1.248-2.976h-5.856L58.424 21zm1.664-4.032h4.992l-2.496-6.016-2.496 6.016zm16.604-5.472c-.245-.34-.56-.616-.944-.824-.384-.208-.848-.312-1.392-.312-.277 0-.56.043-.848.128-.288.085-.55.216-.784.392-.235.176-.424.397-.568.664-.144.267-.216.58-.216.944 0 .363.07.66.208.896.14.235.323.435.552.6.23.165.49.3.784.408.293.107.6.213.92.32.395.128.792.267 1.192.416.4.15.76.344 1.08.584.32.24.58.544.784.912.203.368.304.835.304 1.4s-.11 1.053-.328 1.464c-.22.41-.5.75-.848 1.016-.347.267-.74.464-1.184.592-.443.128-.888.192-1.336.192-.34 0-.683-.035-1.024-.104-.34-.07-.667-.173-.976-.312-.31-.14-.597-.315-.864-.528-.267-.213-.5-.46-.704-.736l.992-.736c.245.405.59.744 1.032 1.016.443.272.963.408 1.56.408.288 0 .58-.045.88-.136.3-.09.568-.23.808-.416.24-.187.437-.416.592-.688.155-.272.232-.59.232-.952 0-.395-.077-.723-.232-.984-.155-.26-.36-.48-.616-.656-.256-.176-.55-.323-.88-.44-.33-.117-.677-.235-1.04-.352-.373-.117-.74-.25-1.104-.4-.363-.15-.688-.344-.976-.584-.288-.24-.52-.536-.696-.888-.176-.352-.264-.784-.264-1.296 0-.544.11-1.013.328-1.408.22-.395.504-.72.856-.976s.74-.443 1.168-.56c.427-.117.848-.176 1.264-.176.768 0 1.424.136 1.968.408.544.272.955.595 1.232.968l-.912.736zm10.524 0c-.245-.34-.56-.616-.944-.824-.384-.208-.848-.312-1.392-.312-.277 0-.56.043-.848.128-.288.085-.55.216-.784.392-.235.176-.424.397-.568.664-.144.267-.216.58-.216.944 0 .363.07.66.208.896.14.235.323.435.552.6.23.165.49.3.784.408.293.107.6.213.92.32.395.128.792.267 1.192.416.4.15.76.344 1.08.584.32.24.58.544.784.912.203.368.304.835.304 1.4s-.11 1.053-.328 1.464c-.22.41-.5.75-.848 1.016-.347.267-.74.464-1.184.592-.443.128-.888.192-1.336.192-.34 0-.683-.035-1.024-.104-.34-.07-.667-.173-.976-.312-.31-.14-.597-.315-.864-.528-.267-.213-.5-.46-.704-.736l.992-.736c.245.405.59.744 1.032 1.016.443.272.963.408 1.56.408.288 0 .58-.045.88-.136.3-.09.568-.23.808-.416.24-.187.437-.416.592-.688.155-.272.232-.59.232-.952 0-.395-.077-.723-.232-.984-.155-.26-.36-.48-.616-.656-.256-.176-.55-.323-.88-.44-.33-.117-.677-.235-1.04-.352-.373-.117-.74-.25-1.104-.4-.363-.15-.688-.344-.976-.584-.288-.24-.52-.536-.696-.888-.176-.352-.264-.784-.264-1.296 0-.544.11-1.013.328-1.408.22-.395.504-.72.856-.976s.74-.443 1.168-.56c.427-.117.848-.176 1.264-.176.768 0 1.424.136 1.968.408.544.272.955.595 1.232.968l-.912.736zm6.188 8.48h6.064V21h-7.216V9.672h7.024v1.024h-5.872V14.6h5.488v1.008h-5.488v4.368zM106.856 21h-1.152V10.696h-3.792V9.672h8.736v1.024h-3.792V21zm6.988-11.328h1.152v4.912h6.176V9.672h1.152V21h-1.152v-5.36h-6.176V21h-1.152V9.672zm24.188 5.664c0 .864-.15 1.66-.448 2.384-.3.725-.712 1.352-1.24 1.88-.528.528-1.152.94-1.872 1.24-.72.3-1.5.448-2.344.448-.843 0-1.624-.15-2.344-.448-.72-.3-1.344-.712-1.872-1.24s-.94-1.155-1.24-1.88c-.3-.725-.448-1.52-.448-2.384 0-.864.15-1.66.448-2.384.3-.725.712-1.352 1.24-1.88.528-.528 1.152-.94 1.872-1.24.72-.3 1.5-.448 2.344-.448.843 0 1.624.15 2.344.448.72.3 1.344.712 1.872 1.24s.94 1.155 1.24 1.88c.3.725.448 1.52.448 2.384zm-1.216 0c0-.66-.107-1.29-.32-1.888-.213-.597-.523-1.123-.928-1.576-.405-.453-.9-.813-1.48-1.08-.58-.267-1.235-.4-1.96-.4-.725 0-1.38.133-1.96.4-.58.267-1.075.627-1.48 1.08-.405.453-.715.98-.928 1.576-.213.597-.32 1.227-.32 1.888 0 .66.107 1.29.32 1.888.213.597.523 1.12.928 1.568.405.448.9.805 1.48 1.072s1.235.4 1.96.4c.725 0 1.38-.133 1.96-.4.58-.267 1.075-.624 1.48-1.072.405-.448.715-.97.928-1.568.213-.597.32-1.227.32-1.888zm9.292 5.952c-.853 0-1.552-.147-2.096-.44-.544-.293-.976-.664-1.296-1.112-.32-.448-.54-.936-.664-1.464-.123-.528-.184-1.027-.184-1.496V9.672h1.152v6.976c0 .46.053.904.16 1.336.107.432.28.816.52 1.152.24.336.557.608.952.816.395.208.88.312 1.456.312s1.06-.104 1.456-.312c.395-.208.712-.48.952-.816.24-.336.413-.72.52-1.152.107-.432.16-.877.16-1.336V9.672h1.152v7.104c0 .47-.06.968-.184 1.496-.123.528-.344 1.016-.664 1.464-.32.448-.755.82-1.304 1.112-.55.293-1.245.44-2.088.44zm14.172-9.792c-.245-.34-.56-.616-.944-.824-.384-.208-.848-.312-1.392-.312-.277 0-.56.043-.848.128-.288.085-.55.216-.784.392-.235.176-.424.397-.568.664-.144.267-.216.58-.216.944 0 .363.07.66.208.896.14.235.323.435.552.6.23.165.49.3.784.408.293.107.6.213.92.32.395.128.792.267 1.192.416.4.15.76.344 1.08.584.32.24.58.544.784.912.203.368.304.835.304 1.4s-.11 1.053-.328 1.464c-.22.41-.5.75-.848 1.016-.347.267-.74.464-1.184.592-.443.128-.888.192-1.336.192-.34 0-.683-.035-1.024-.104-.34-.07-.667-.173-.976-.312-.31-.14-.597-.315-.864-.528-.267-.213-.5-.46-.704-.736l.992-.736c.245.405.59.744 1.032 1.016.443.272.963.408 1.56.408.288 0 .58-.045.88-.136.3-.09.568-.23.808-.416.24-.187.437-.416.592-.688.155-.272.232-.59.232-.952 0-.395-.077-.723-.232-.984-.155-.26-.36-.48-.616-.656-.256-.176-.55-.323-.88-.44-.33-.117-.677-.235-1.04-.352-.373-.117-.74-.25-1.104-.4-.363-.15-.688-.344-.976-.584-.288-.24-.52-.536-.696-.888-.176-.352-.264-.784-.264-1.296 0-.544.11-1.013.328-1.408.22-.395.504-.72.856-.976s.74-.443 1.168-.56c.427-.117.848-.176 1.264-.176.768 0 1.424.136 1.968.408.544.272.955.595 1.232.968l-.912.736zm6.188 8.48h6.064V21h-7.216V9.672h7.024v1.024h-5.872V14.6h5.488v1.008h-5.488v4.368z"/></g></svg>