<?xml version="1.0" encoding="utf-8"?>
<!-- Generator: Adobe Illustrator 13.0.2, SVG Export Plug-In . SVG Version: 6.00 Build 14948)  -->
<!DOCTYPE svg PUBLIC "-//W3C//DTD SVG 1.1//EN" "http://www.w3.org/Graphics/SVG/1.1/DTD/svg11.dtd">
<svg version="1.1" id="Layer_1" xmlns="http://www.w3.org/2000/svg" xmlns:xlink="http://www.w3.org/1999/xlink" x="0px" y="0px"
	 width="56px" height="28px" viewBox="0 0 56 28" enable-background="new 0 0 56 28" xml:space="preserve">
<g>
	<g>
		<g>
			<g>
				<g id="XMLID_4_">
					<g>
						<linearGradient id="SVGID_1_" gradientUnits="userSpaceOnUse" x1="6.4126" y1="0.9971" x2="6.4126" y2="23.0118">
							<stop  offset="0" style="stop-color:#FFFFFF"/>
							<stop  offset="1" style="stop-color:#DCD3C2"/>
						</linearGradient>
						<path fill="url(#SVGID_1_)" d="M10.127,18.545c0-1.522-1.798-2.109-3.808-2.684c-2.385-0.662-5.044-1.499-5.044-4.283v-0.062
							c0-2.622,2.185-4.383,5.194-4.383c1.86,0,3.92,0.649,5.481,1.698l-1.024,1.698c-1.423-0.911-3.046-1.46-4.52-1.46
							c-1.798,0-2.946,0.937-2.946,2.21v0.05c0,1.436,1.885,2.01,3.92,2.634c2.372,0.712,4.907,1.611,4.907,4.346v0.074
							c0,2.896-2.397,4.57-5.431,4.57c-2.185,0-4.607-0.862-6.318-2.248l1.149-1.61c1.648,1.236,3.483,1.948,5.281,1.948
							c1.835,0,3.159-0.949,3.159-2.436V18.545z"/>
						<linearGradient id="SVGID_2_" gradientUnits="userSpaceOnUse" x1="34.9668" y1="1.0029" x2="34.9668" y2="23.0171">
							<stop  offset="0" style="stop-color:#FFFFFF"/>
							<stop  offset="1" style="stop-color:#DCD3C2"/>
						</linearGradient>
						<path fill="url(#SVGID_2_)" d="M34.736,9.418v13.235h-2.272V9.418h-2.098V7.446h2.098V6.109c0-3.333,1.686-5.106,4.595-5.106
							c1.074,0,1.773,0.112,2.51,0.387v1.973c-0.824-0.225-1.436-0.375-2.21-0.375c-1.772,0-2.659,1.061-2.659,3.246v1.236h4.844
							v1.948H34.736z"/>
						<linearGradient id="SVGID_3_" gradientUnits="userSpaceOnUse" x1="21.3208" y1="1.0103" x2="21.3208" y2="23.0251">
							<stop  offset="0" style="stop-color:#FFFFFF"/>
							<stop  offset="1" style="stop-color:#DCD3C2"/>
						</linearGradient>
						<path fill="url(#SVGID_3_)" d="M20.515,22.99c-3.696,0-5.843-2.484-5.843-6.118V7.408h2.272v8.902
							c0,2.847,1.523,4.607,4.22,4.607c2.597,0,4.57-1.923,4.57-4.782V7.408h2.235v15.245h-2.235v-2.647
							C24.698,21.654,23.137,22.99,20.515,22.99z"/>
						<linearGradient id="SVGID_4_" gradientUnits="userSpaceOnUse" x1="47.7148" y1="1.02" x2="47.7148" y2="22.9998">
							<stop  offset="0" style="stop-color:#FFFFFF"/>
							<stop  offset="1" style="stop-color:#DCD3C2"/>
						</linearGradient>
						<path fill="url(#SVGID_4_)" d="M47.685,9.081c-3.31,0-5.582,2.622-5.582,5.931c0,3.297,2.41,5.969,5.632,5.969
							c3.309,0,5.605-2.622,5.605-5.906C53.34,11.741,50.893,9.081,47.685,9.081z M55.662,15.012c0,4.333-3.383,7.991-7.978,7.991
							c-4.583,0-7.916-3.596-7.916-7.929c0-4.333,3.371-7.978,7.966-7.978C52.304,7.096,55.662,10.667,55.662,15.012z"/>
					</g>
					<g>
						<path fill="none" stroke="#000000" stroke-width="0.2268" d="M7.38,13.963c-2.035-0.624-3.92-1.198-3.92-2.634v-0.05
							c0-1.273,1.148-2.21,2.946-2.21c1.474,0,3.097,0.549,4.52,1.46l1.024-1.698c-1.561-1.049-3.621-1.698-5.481-1.698
							c-3.009,0-5.194,1.761-5.194,4.383v0.062c0,2.785,2.659,3.621,5.044,4.283c2.01,0.574,3.808,1.161,3.808,2.684v0.062
							c0,1.486-1.323,2.436-3.159,2.436c-1.798,0-3.633-0.712-5.281-1.948l-1.149,1.61c1.71,1.386,4.133,2.248,6.318,2.248
							c3.034,0,5.431-1.674,5.431-4.57v-0.074C12.287,15.574,9.752,14.675,7.38,13.963z"/>
						<path fill="none" stroke="#000000" stroke-width="0.2268" d="M25.734,16.136c0,2.859-1.973,4.782-4.57,4.782
							c-2.697,0-4.22-1.761-4.22-4.607V7.408h-2.272v9.464c0,3.634,2.147,6.118,5.843,6.118c2.622,0,4.183-1.336,5.219-2.984v2.647
							h2.235V7.408h-2.235V16.136z"/>
						<path fill="none" stroke="#000000" stroke-width="0.2268" d="M32.464,6.109v1.336h-2.098v1.973h2.098v13.235h2.272V9.418
							h4.807V7.471h-4.844V6.234c0-2.185,0.887-3.246,2.659-3.246c0.774,0,1.386,0.15,2.21,0.375V1.39
							c-0.736-0.275-1.436-0.387-2.51-0.387C34.149,1.003,32.464,2.776,32.464,6.109z"/>
						<path fill="none" stroke="#000000" stroke-width="0.2268" d="M47.734,7.096c-4.595,0-7.966,3.646-7.966,7.978
							c0,4.333,3.333,7.929,7.916,7.929c4.595,0,7.978-3.658,7.978-7.991C55.662,10.667,52.304,7.096,47.734,7.096z"/>
						<path fill="none" stroke="#000000" stroke-width="0.2268" d="M47.734,20.98c-3.222,0-5.632-2.672-5.632-5.969
							c0-3.309,2.272-5.931,5.582-5.931c3.208,0,5.655,2.66,5.655,5.993C53.34,18.358,51.043,20.98,47.734,20.98z"/>
					</g>
				</g>
			</g>
		</g>
	</g>
</g>
</svg>
